<?xml version="1.0" encoding="utf-8"?>
<!-- Generator: Adobe Illustrator 28.0.0, SVG Export Plug-In . SVG Version: 6.00 Build 0)  -->
<svg version="1.1" id="Calque_1" xmlns="http://www.w3.org/2000/svg" xmlns:xlink="http://www.w3.org/1999/xlink" x="0px" y="0px"
	 viewBox="0 0 160 80" style="enable-background:new 0 0 160 80;" xml:space="preserve">
<style type="text/css">
	.st0{fill:#E24CB3;}
</style>
<g>
	<g>
		<g>
			<g>
				<path class="st0" d="M23.36,61.51c-0.03,0-14.25-0.08-14.31-17.62c0,0,0,0,0,0c0.01,0.02,0.9,1.96,5.08,3.25
					c4.2,1.3,11.94,2.01,10.82,13.6c0,0-10.34-4.65-12.76-10.5c0,0,0,0,0,0C12.21,50.31,13.49,56.25,23.36,61.51
					C23.36,61.51,23.36,61.51,23.36,61.51z"/>
			</g>
			<g>
				<path class="st0" d="M17.64,42.08c0,0.02-1.49,5.56,3.67,6.98c0,0,0,0,0,0c-0.01-0.01-2.37-1.78-2.87-3.96c0,0,0,0,0,0
					l1.39,2.01c0,0,0,0,0,0c0,0,0.67,0.78,2.1,1.88c0,0,1.02-2.9-0.75-4.23C19.4,43.43,18.16,43.34,17.64,42.08
					C17.64,42.08,17.64,42.08,17.64,42.08z"/>
			</g>
			<g>
				<path class="st0" d="M22.78,36.94c-0.02-0.01-10.46-6.93-2.35-19.42c0,0,0.09,2.53,2.79,5.37s7.01,7.18,1.15,14.28
					c0,0-4.22-5.1-4.55-13.48c0,0,0,0,0,0C19.82,23.72,18.32,29.34,22.78,36.94C22.78,36.94,22.78,36.94,22.78,36.94z"/>
			</g>
			<g>
				<path class="st0" d="M27.75,20.98C27.75,20.98,27.75,20.98,27.75,20.98c0.02,0.02,2.17,2.42,1.29,6.61
					c-0.89,4.21-5.14,14.19-5.14,14.19s-2.57,6.02,0.4,10.92c0,0,0,0,0,0c-0.01-0.04-1.32-5.35,1.91-10.75c0,0,2.96-3.97,3.66-4.77
					c0,0,1.87-2.75,2.29-4.88c0.41-2.13,0.42-4.21-0.71-6.89C30.28,22.67,27.77,20.99,27.75,20.98z"/>
			</g>
			<g>
				<path class="st0" d="M23.09,39.73c-0.03,0.02-4.71,3.57-9.14-2.79c0,0,1.42,0.62,4.04-0.49c2.62-1.11,5.14,1.11,5.54,2.62
					c0,0-2.13,0.84-6.25-0.35c0,0,0,0,0,0C17.3,38.73,18.81,40.26,23.09,39.73C23.09,39.73,23.09,39.73,23.09,39.73z"/>
			</g>
			<g>
				<path class="st0" d="M33.56,19.47c0.1,0.1,30.2,29.91,2.57,43.02c0,0-5.85-5.68,2.75-10.38c0,0,1.46-0.93,3.77-1.06
					c2.31-0.13,2.75-1.42,2.75-1.42s0.29-1.2-0.54-2.11c0,0-0.51-0.57,0.34-1.46c0,0,0.51-0.75-0.75-1.12c0,0,0.62-1.01,0.35-1.42
					c0,0-0.29-0.46-1.15-0.64c0,0-0.43-0.86,0.24-1.48c0,0,1.06-0.9,0.99-1.46c-0.07-0.55-1.56-1.37-2.06-1.32
					c-0.5,0.04-2.4-1.32-2.4-1.32c0,0,0,0,0,0c0,0,0.9-0.81,0.92-0.96c0.01-0.15-0.41,0.17-0.41,0.18c0,0,0,0,0,0l0.25-0.6
					c0,0,0,0,0,0c0,0-0.11-0.06-0.2,0.12c-0.09,0.18-0.31,0.4-0.31,0.4c0,0,0,0,0,0c0,0,0.03-0.35,0.09-0.5
					c0.03-0.06-0.06-0.12-0.1-0.07c0,0,0,0,0,0c-0.07,0.08-0.31,0.76-0.59,0.89c0,0-0.35-2.51-2.37-4.59c0,0,0,0,0,0
					c0,0-0.13-0.02-0.07,0.16c0.07,0.18,3.71,6.78-3.62,13.26c-7.3,6.44-5.03,13.78-5.01,13.85c0,0,0,0,0,0
					c-0.02-0.04-1.31-2.24-0.98-6.07c0.34-3.87,8.75-15.65,7.67-19.77c0,0,0,0,0,0c0,0.02-0.45,3.81-2.04,5.87
					c-1.6,2.07-6.56,8.57-7.39,11.88c-0.83,3.31,0,7.15,2.13,9.99c0,0,0,0,0,0c-0.01,0-1.5-0.11-3.16-5.32c0,0-1.2-4.97,0.9-9.08
					s8.5-13.23,9.21-18.06C36.04,24.06,33.59,19.51,33.56,19.47C33.56,19.47,33.56,19.47,33.56,19.47z"/>
			</g>
		</g>
	</g>
	<g>
		<path d="M94.6,34.54c0.01,0.48,0.4,0.87,0.88,0.87h0.17l0,0.14h-3.02l0-0.14h0.17c0.48,0,0.88-0.39,0.88-0.87v-7.66
			c-0.01-0.48-0.4-0.86-0.88-0.86h-0.17l0-0.14h3.02l0,0.14h-0.17c-0.48,0-0.87,0.38-0.88,0.86V34.54z M99.73,34.84
			c0.38,0.38,0.74,0.55,1.3,0.56v0.14h-0.58c-0.39,0-1.45-0.04-2.08-0.78l-3.32-4.03l3.26-4.09c0.23-0.31,0.05-0.65-0.33-0.65h-0.13
			v-0.12h2.92V26h-0.06c-0.59,0-1.13,0.25-1.49,0.65l-3.25,3.76L99.73,34.84z"/>
		<path d="M106.83,26.87c-0.01-0.48-0.4-0.86-0.88-0.86h-0.17l0-0.14h3.02l0,0.14h-0.17c-0.48,0-0.87,0.38-0.88,0.86v7.66
			c0.01,0.48,0.4,0.87,0.88,0.87h0.17l0,0.14h-3.02l0-0.14h0.17c0.48,0,0.88-0.39,0.88-0.87V26.87z M105.48,30.4l-3.25-3.76
			c-0.36-0.4-0.9-0.64-1.49-0.65h-0.06v-0.12h2.92v0.12h-0.13c-0.38,0-0.57,0.34-0.33,0.65l3.26,4.09l-3.32,4.03
			c-0.63,0.74-1.69,0.78-2.08,0.78h-0.58V35.4c0.56-0.01,0.93-0.19,1.3-0.56L105.48,30.4z"/>
	</g>
	<g>
		<path d="M55.08,44.26c1.16,0,3.34,0.27,3.34,2.41c0,0.99-0.89,1.78-1.77,1.99c1.56,0.19,2.7,1.26,2.7,2.55c0,2.1-2,2.7-3.58,2.7
			H51.8l0-0.16h0.19c0.54,0,0.95-0.39,0.96-0.87v-7.59c-0.02-0.52-0.42-0.86-0.96-0.86H51.8l0-0.16L55.08,44.26z M55.76,53.43
			c1.39,0,2.44-0.68,2.44-2.22c0-2.05-2-2.4-3.73-2.4l0-0.16c1.17,0,2.82-0.22,2.82-1.98c0-1.35-0.83-1.92-2.24-1.92h-1.09v8.68
			L55.76,53.43z"/>
		<path d="M67.17,53.91h-6.36l0-0.16h0.22c0.51,0,0.89-0.37,0.9-0.83v-7.43c0-0.47-0.4-0.82-0.9-0.82h-0.22l0-0.16h4.58
			c0.63,0,1.48-0.14,1.75-0.25v1.77l-0.17,0v-0.24c0-0.44-0.31-0.8-0.79-0.81h-3.25v3.99h2.68c0.43-0.01,0.63-0.3,0.63-0.67v-0.2
			l0.17,0v2.2l-0.17,0v-0.2c0-0.35-0.19-0.64-0.6-0.66h-2.71v3.99h2.45c1.51-0.02,2.04-0.75,2.49-1.77h0.17L67.17,53.91z"/>
		<path d="M77.61,52.84c0.32,0.64,0.79,0.91,1.21,0.91h0.12v0.16h-3.21v-0.15h0.12c0.36,0,0.76-0.34,0.55-0.94l-0.85-2.08h-3.96
			l-0.86,2.04c-0.24,0.63,0.17,0.98,0.54,0.98h0.12v0.15h-2.98v-0.16h0.12c0.42,0,0.91-0.27,1.23-0.9L73,45.92
			c0,0,0.57-1.2,0.6-1.61h0.15L77.61,52.84z M75.36,50.27l-1.76-4.28l-1.81,4.28H75.36z"/>
		<path d="M88.77,44.26v0.16h-0.24c-0.42,0-0.75,0.29-0.77,0.68v5.41c0,2.24-1.52,3.62-4,3.62c-2.48,0-4.02-1.37-4.02-3.6v-5.41
			c-0.01-0.4-0.35-0.7-0.77-0.7h-0.24v-0.16h3.05v0.16h-0.24c-0.42,0-0.76,0.3-0.77,0.7v5.21c0,2.08,1.13,3.36,2.98,3.36
			c2.03,0,3.27-1.21,3.28-3.18v-5.4c-0.01-0.39-0.35-0.69-0.77-0.69h-0.24v-0.16L88.77,44.26z"/>
		<path d="M96.25,44.51c0.62,0,1.48-0.14,1.75-0.25v1.76l-0.17,0v-0.24c0-0.44-0.31-0.8-0.78-0.8h-2.83v7.95
			c0.02,0.46,0.42,0.83,0.92,0.83h0.18l0,0.16H92.1l0-0.16h0.18c0.5,0,0.91-0.38,0.92-0.85v-7.93h-2.83
			c-0.47,0.01-0.78,0.36-0.78,0.8v0.24l-0.17,0v-1.76c0.27,0.11,1.13,0.25,1.74,0.25H96.25z"/>
		<path d="M108.61,44.26v0.16h-0.2c-0.61,0-1.16,0.39-1.48,0.82l-3.08,4.68v2.95c0.01,0.48,0.42,0.87,0.93,0.87h0.18l0,0.16h-3.29
			l0-0.16h0.18c0.51,0,0.93-0.39,0.94-0.87V49.9l-2.98-4.67c-0.33-0.49-0.86-0.81-1.47-0.81h-0.2v-0.16h3.73v0.16h-0.18
			c-0.43,0-0.68,0.4-0.55,0.77l2.34,4.16l2.49-4.15c0.17-0.4-0.11-0.78-0.55-0.78h-0.18v-0.16L108.61,44.26z"/>
		<path d="M117.97,49.93c0.48,0.4,0.7,1.07,0.71,1.68c0.01,1.4-1.22,2.52-2.77,2.52c-0.93,0-2.13-0.23-2.7-0.74
			c-0.1-0.42-0.06-1.34,0.16-1.94h0.18c-0.14,1.41,0.81,2.25,2.19,2.21c1.29-0.04,2.08-0.71,2.08-1.73c0-0.49-0.17-0.89-0.57-1.24
			l-3.13-2.41c-0.58-0.5-0.74-1.15-0.75-1.69c-0.02-1.27,1.14-2.28,2.59-2.28c0.72,0,1.2,0.06,1.55,0.14h0.52l0.02,1.7h-0.18
			c0-0.87-0.58-1.38-1.81-1.38c-1.04,0-1.89,0.66-1.88,1.49c0,0.4,0.12,0.84,0.61,1.23L117.97,49.93z"/>
		<path d="M122.43,52.89c0.02,0.48,0.43,0.86,0.95,0.86h0.19l0,0.16h-3.3l0-0.16h0.19c0.52,0,0.94-0.39,0.95-0.87V45.3
			c-0.01-0.48-0.43-0.87-0.95-0.87h-0.19l0-0.16h3.3l0,0.16h-0.19c-0.51,0-0.92,0.37-0.95,0.85V52.89z M128.08,53.09
			c0.38,0.44,0.71,0.64,1.41,0.66v0.16h-0.6c-0.48,0-1.61-0.05-2.36-0.91L123,49.12l3.46-4.07c0.24-0.29,0.02-0.62-0.35-0.62h-0.14
			v-0.16h3.27v0.16h-0.06c-0.62,0-1.18,0.2-1.56,0.58l-3.51,3.74L128.08,53.09z"/>
		<path d="M139.52,44.26v0.16h-0.2c-0.61,0-1.16,0.39-1.48,0.82l-3.08,4.68v2.95c0.01,0.48,0.42,0.87,0.93,0.87h0.18l0,0.16h-3.29
			l0-0.16h0.18c0.51,0,0.93-0.39,0.94-0.87V49.9l-2.98-4.67c-0.33-0.49-0.86-0.81-1.47-0.81h-0.2v-0.16h3.73v0.16h-0.18
			c-0.43,0-0.68,0.4-0.55,0.77l2.34,4.16l2.49-4.15c0.17-0.4-0.11-0.78-0.55-0.78h-0.18v-0.16L139.52,44.26z"/>
		<path d="M150.95,44.5l0,0.16h-0.26c-0.46,0-0.84,0.35-0.87,0.78v6.69c0,1.01,0.15,2,0.15,2h-0.15l-8.16-7.74v6.54
			c0.01,0.45,0.4,0.82,0.87,0.82h0.26l0,0.16h-2.96l0-0.16h0.26c0.48,0,0.86-0.37,0.87-0.82v-6.71c0-1.07-0.15-1.96-0.15-1.96
			l0.17,0.01l8.14,7.67v-6.5c-0.03-0.44-0.41-0.78-0.87-0.78h-0.26l0-0.16L150.95,44.5z"/>
	</g>
</g>
</svg>
