<?xml version="1.0" encoding="utf-8"?>
<!-- Generator: Adobe Illustrator 28.0.0, SVG Export Plug-In . SVG Version: 6.00 Build 0)  -->
<svg version="1.1" id="Calque_1" xmlns="http://www.w3.org/2000/svg" xmlns:xlink="http://www.w3.org/1999/xlink" x="0px" y="0px"
	 viewBox="0 0 160 80" style="enable-background:new 0 0 160 80;" xml:space="preserve">
<style type="text/css">
	.st0{fill:#EA0F01;}
</style>
<g>
	<path d="M80,21.64c0.09-2.5,0.52-4.85,1.3-7.14c0.52-1.52,1.14-2.98,2.02-4.33c0.48-0.74,1.05-1.4,1.85-1.81
		c0.43-0.22,0.87-0.35,1.37-0.27c0.44,0.07,0.9,0.69,0.7,1.14c-0.31,0.68-0.58,1.39-0.91,2.06c-1.31,2.61-2.18,5.36-2.69,8.22
		c-0.21,1.19-0.26,2.4-0.05,3.6c0.26,1.43,1.11,2.3,2.49,2.7c1.73,0.51,4.12-0.05,5.26-1.51c0.99-1.27,1.18-3,0.43-4.39
		c-0.38-0.69-1.14-1.08-1.97-0.99c-0.85,0.08-1.47,0.57-1.69,1.31c-0.17,0.55-0.01,0.99,0.4,1.34c0.24,0.21,0.5,0.39,0.75,0.58
		c0.16,0.13,0.32,0.25,0.48,0.38c0.68,0.59,0.35,1.29-0.14,1.65c-0.52,0.38-1.12,0.44-1.73,0.35c-1.25-0.2-2.25-0.79-2.75-2
		c-0.32-0.79-0.18-1.62,0.1-2.4c0.91-2.58,3.58-4.21,6.48-3.44c1.34,0.36,2.16,1.29,2.75,2.5c1.38,2.83,0.79,5.86-1.31,8.11
		c-1.51,1.61-3.36,2.61-5.55,2.88c-2.56,0.33-4.87-0.66-6.3-3.13c-0.71-1.21-0.99-2.55-1.16-3.92C80.04,22.62,80.03,22.09,80,21.64z
		"/>
	<path d="M105.33,30.14c-0.28,0.04-0.51,0.09-0.75,0.12c-2.99,0.42-5.43-0.56-7.25-2.95c-1.18-1.54-1.1-3.15,0.07-4.71
		c0.69-0.92,1.37-1.85,2.29-2.58c1.78-1.42,4.14-1.44,5.75,0c0.37,0.33,0.64,0.79,0.94,1.2c0.1,0.13,0.16,0.29,0.31,0.43
		c0.01-0.08,0.03-0.17,0.03-0.25c-0.03-0.78-0.19-1.52-0.53-2.23c-0.53-1.09-1.45-1.66-2.59-1.93c-1-0.24-2.02-0.2-3.01,0.02
		c-1.1,0.25-2.19,0.58-3.28,0.88c-0.17,0.05-0.35,0.06-0.52,0.1c-0.57,0.13-0.99-0.44-0.83-1.01c0.21-0.74,0.66-1.3,1.3-1.68
		c2.41-1.46,4.99-2,7.72-1.19c2.48,0.73,4.02,2.44,4.62,4.96c0.37,1.58,0.25,3.17-0.04,4.75c-0.35,1.87-0.89,3.68-1.83,5.35
		c-0.33,0.58-0.71,1.13-1.08,1.69c-0.22,0.33-0.52,0.58-0.9,0.72c-0.39,0.14-0.7-0.08-0.69-0.5c0-0.16,0.04-0.31,0.08-0.46
		C105.19,30.65,105.26,30.43,105.33,30.14z M104.3,25.8c-0.02-1.01-0.14-1.85-0.61-2.61c-0.3-0.48-0.71-0.78-1.31-0.74
		c-0.93,0.07-1.75,0.41-2.44,1.04c-0.55,0.5-0.72,1.11-0.54,1.82c0.34,1.34,1.95,2.69,3.34,2.78c0.42,0.03,0.75-0.12,1.01-0.47
		C104.18,27.02,104.28,26.35,104.3,25.8z"/>
	<path class="st0" d="M55.33,15.82c0.02,1.57-0.43,2.13-1.43,2.28c-0.61,0.09-1.05-0.19-1.35-0.68c-0.25-0.4-0.45-0.83-0.68-1.25
		c-0.62-1.11-1.24-2.22-2.2-3.09c-0.85-0.77-1.81-1.22-3-1.02c-0.86,0.15-1.61,0.55-2.22,1.15c-0.62,0.62-1.17,1.31-1.74,1.99
		c-0.37,0.45-0.69,0.94-1.07,1.39c-0.73,0.87-1.81,0.89-2.56,0.06c-0.41-0.45-0.48-0.98-0.37-1.56c0.33-1.64,1.17-3.01,2.29-4.23
		c1.49-1.62,3.33-2.57,5.51-2.88c1.74-0.25,3.34,0.13,4.77,1.11C53.83,10.8,55.18,13.22,55.33,15.82z"/>
	<path d="M44.45,20.83c0.06-1.61,0.11-3.22,0.51-4.78c0.1-0.41,0.24-0.83,0.46-1.18c0.7-1.09,2.27-1.05,2.91,0.08
		c0.28,0.49,0.44,1.06,0.57,1.62c0.54,2.4,0.69,4.85,0.6,7.3c-0.05,1.32-0.11,2.64-0.43,3.92c-0.18,0.72-0.47,1.39-1.03,1.91
		c-0.91,0.84-1.82,0.68-2.41-0.4c-0.47-0.88-0.62-1.84-0.78-2.8c-0.1-0.59-0.19-1.19-0.22-1.8C44.55,23.4,44.5,22.11,44.45,20.83z"
		/>
	<path d="M111.46,20.46c0.07-2.58,0.23-4.88,0.84-7.13c0.21-0.78,0.5-1.54,0.97-2.21c0.39-0.56,0.89-1,1.55-1.23
		c0.89-0.31,1.58,0.27,1.4,1.2c-0.11,0.58-0.27,1.16-0.43,1.73c-0.42,1.54-0.61,3.11-0.77,4.69c-0.15,1.54-0.19,3.08-0.11,4.62
		c0.07,1.47,0.38,2.9,0.62,4.35c0.17,1.03,0.3,2.07,0.41,3.11c0.07,0.59-0.41,1.08-1.06,0.92c-0.71-0.17-1.22-0.61-1.63-1.18
		c-0.62-0.86-0.92-1.85-1.17-2.87C111.56,24.41,111.46,22.31,111.46,20.46z"/>
	<path d="M60.11,17.36c0.31-0.26,0.63-0.51,0.94-0.77c1.12-0.94,2.33-1.71,3.76-2.11c0.57-0.16,1.14-0.21,1.74-0.1
		c0.75,0.14,1.29,0.55,1.62,1.23c0.42,0.88,0.67,1.8,0.77,2.77c0.08,0.83,0.13,1.67-0.06,2.49c-0.11,0.49-0.31,0.93-0.78,1.2
		c-0.22,0.13-0.42,0.14-0.65,0.01c-0.65-0.39-0.83-1.01-0.9-1.7c-0.05-0.48-0.11-0.96-0.17-1.44c-0.01-0.1-0.03-0.2-0.06-0.3
		c-0.25-0.82-0.61-1.11-1.41-0.67c-0.74,0.41-1.41,0.95-2.08,1.48c-0.89,0.71-1.72,1.48-2.61,2.18c-0.36,0.29-0.78,0.55-1.22,0.7
		c-0.76,0.26-1.47-0.05-1.82-0.78c-0.2-0.43-0.34-0.93-0.38-1.41c-0.1-1.12-0.06-2.25,0.19-3.35c0.13-0.59,0.36-1.14,0.86-1.52
		c0.16-0.12,0.35-0.22,0.55-0.26c0.67-0.16,1.17,0.13,1.38,0.83c0.11,0.38,0.15,0.78,0.21,1.17c0.02,0.1,0.02,0.2,0.03,0.3
		C60.06,17.33,60.08,17.35,60.11,17.36z"/>
	<path d="M75.95,24.15c-0.03,1-0.05,2-0.09,3.01c-0.01,0.23,0.07,0.3,0.29,0.32c0.4,0.04,0.82,0.09,1.2,0.2
		c0.61,0.18,0.81,0.62,0.59,1.22c-0.18,0.51-0.56,0.84-1.02,1.09c-0.6,0.32-1.26,0.43-1.93,0.49c-1.32,0.14-2.62,0.07-3.84-0.53
		c-0.27-0.13-0.54-0.31-0.74-0.53c-0.55-0.57-0.38-1.27,0.35-1.55c0.27-0.1,0.55-0.17,0.83-0.22c0.22-0.04,0.27-0.13,0.26-0.33
		c-0.08-1.19-0.16-2.39-0.21-3.59c-0.06-1.48-0.03-2.96,0.54-4.36c0.14-0.35,0.31-0.7,0.53-1.01c0.51-0.72,1.23-0.82,1.98-0.36
		c0.78,0.47,1.09,1.21,1.16,2.05c0.1,1.36,0.13,2.72,0.2,4.08C76.01,24.14,75.98,24.14,75.95,24.15z"/>
	<path d="M61.17,27.05c-0.02,0.76-0.06,1.5-0.32,2.22c-0.22,0.59-0.55,1.08-1.21,1.23c-0.77,0.18-1.38-0.18-1.55-0.96
		c-0.14-0.64-0.24-1.29-0.34-1.94c-0.09-0.57-0.18-1.14-0.2-1.71c-0.02-0.48,0.04-0.98,0.13-1.45c0.05-0.24,0.21-0.48,0.37-0.67
		c0.33-0.37,0.75-0.5,1.24-0.32c1.04,0.39,1.65,1.14,1.79,2.24C61.12,26.14,61.14,26.6,61.17,27.05z"/>
	<path d="M75.93,14.58c0.02,1.05-1.02,2.08-2.04,2.17c-0.62,0.05-1.15-0.11-1.56-0.6c-0.52-0.62-0.6-2.12,0.12-2.81
		c0.79-0.76,1.92-0.81,2.78-0.12C75.68,13.6,75.94,14.08,75.93,14.58z"/>
	<path class="st0" d="M25.42,39.97c0.3-0.75,0.58-1.46,0.86-2.18c0.1-0.26-0.08-0.38-0.26-0.5c-0.75-0.48-1.51-0.96-2.26-1.46
		c-0.31-0.21-0.59-0.45-0.88-0.69c-0.41-0.35-0.54-0.8-0.34-1.29c0.14-0.33,0.32-0.65,0.55-0.91c0.29-0.34,0.68-0.42,1.11-0.25
		c0.81,0.32,1.63,0.63,2.44,0.94c0.22,0.08,0.44,0.14,0.66,0.22c0.26,0.09,0.41,0.02,0.56-0.24c0.42-0.74,0.89-1.44,1.56-1.99
		c0.7-0.58,1.46-0.69,2.27-0.28c1.01,0.5,1.81,1.26,2.49,2.14c0.06,0.08,0.13,0.17,0.18,0.26c0.16,0.26,0.31,0.29,0.54,0.06
		c0.38-0.36,0.77-0.71,1.19-1.02c0.81-0.58,1.27-0.3,1.76,0.37c0.1,0.13,0.09,0.42,0.01,0.58c-0.17,0.33-0.39,0.63-0.64,0.9
		c-0.36,0.38-0.76,0.73-1.15,1.07c-0.18,0.16-0.23,0.32-0.13,0.55c0.28,0.64,0.54,1.28,0.8,1.93c0.09,0.22,0.2,0.27,0.42,0.19
		c0.56-0.19,1.13-0.37,1.7-0.53c0.34-0.1,0.69-0.12,0.92,0.21c0.25,0.35,0.27,0.74,0.05,1.12c-0.44,0.75-1.05,1.33-1.79,1.78
		c-0.22,0.13-0.28,0.25-0.21,0.5c0.29,1.02,0.55,2.04,0.83,3.06c0.15,0.53,0.18,0.49,0.69,0.3c0.65-0.24,1.32-0.43,2-0.56
		c0.42-0.08,0.84,0.04,1.09,0.46c0.24,0.4,0.14,0.82-0.13,1.14c-0.35,0.41-0.73,0.81-1.16,1.13c-0.42,0.32-0.92,0.55-1.39,0.79
		c-0.24,0.12-0.34,0.25-0.27,0.54c0.23,1.02,0.45,2.04,0.63,3.07c0.06,0.32,0.19,0.34,0.45,0.29c0.73-0.15,1.46-0.3,2.19-0.44
		c0.14-0.03,0.28-0.04,0.42-0.04c0.65-0.02,1.03,0.51,0.68,1.07c-0.28,0.45-0.68,0.85-1.1,1.19c-0.52,0.41-1.1,0.73-1.67,1.07
		c-0.27,0.16-0.34,0.33-0.25,0.65c0.21,0.75,0.35,1.51,0.54,2.27c0.13,0.51-0.01,0.95-0.41,1.25c-0.46,0.35-0.96,0.64-1.46,0.93
		c-0.34,0.19-0.68,0.09-0.91-0.19c-0.21-0.25-0.42-0.54-0.53-0.85c-0.72-2.1-1.44-4.2-2.09-6.31c-1.35-4.34-2.65-8.69-3.98-13.03
		c-0.15-0.5-0.39-0.97-0.61-1.44c-0.07-0.15-0.22-0.25-0.33-0.38c-0.12,0.14-0.3,0.27-0.36,0.43c-0.21,0.58-0.4,1.16-0.58,1.75
		c-1.27,4.35-2.52,8.7-3.81,13.05c-0.56,1.89-1.19,3.77-1.79,5.65c-0.43,1.34-1.34,1.5-2.47,1.38c-0.49-0.05-0.79-0.41-0.8-0.99
		c-0.02-1.12-0.08-2.24,0.02-3.35c0.12-1.23,0.4-2.45,0.62-3.67c0.04-0.21-0.03-0.3-0.21-0.36c-0.77-0.27-1.54-0.54-2.29-0.84
		c-0.56-0.22-1.12-0.46-1.64-0.76c-0.74-0.43-0.86-0.9-0.48-1.67c0.38-0.78,1.08-1.14,1.93-0.92c0.95,0.25,1.9,0.55,2.85,0.82
		c0.23,0.07,0.47,0.14,0.7,0.21c0.25,0.08,0.36,0,0.46-0.25c0.32-0.84,0.66-1.66,1.02-2.48c0.11-0.26,0.09-0.44-0.1-0.66
		c-0.69-0.79-1.54-1.38-2.4-1.95c-0.41-0.28-0.84-0.54-1.26-0.81c-0.49-0.31-0.92-0.66-0.83-1.33c0.09-0.73,0.46-1.26,1.13-1.56
		c0.73-0.33,1.48-0.26,2.22-0.02c0.62,0.2,1.23,0.44,1.84,0.66C25,39.83,25.19,39.89,25.42,39.97z"/>
	<path d="M59.53,56.54c-0.17,0.1-0.27,0.15-0.35,0.22c-1.15,0.99-2.52,1.34-3.99,1.31c-2.58-0.05-4.93-0.84-6.96-2.44
		c-1.85-1.47-2.7-3.44-2.54-5.79c0.27-3.92,2.42-6.56,5.88-8.16c2.58-1.2,5.74-0.32,7.48,1.93c1.18,1.52,2.39,3.03,3.25,4.78
		c1.14,2.3,1.86,4.72,2.01,7.28c0.2,3.23-0.86,6.03-3.3,8.21c-0.58,0.52-1.3,0.89-1.97,1.3c-0.65,0.39-0.63,0.36-0.42,1.08
		c0.23,0.8,0.43,1.61,0.59,2.43c0.07,0.34,0.02,0.72-0.05,1.07c-0.11,0.61-0.57,0.92-1.14,1.03c-0.51,0.1-0.9-0.18-1.12-0.6
		c-0.56-1.04-1.09-2.1-1.6-3.17c-0.12-0.26-0.25-0.39-0.54-0.35c-0.83,0.14-1.67,0.27-2.55,0.41c0.17,0.54,0.37,1.05,0.48,1.58
		c0.15,0.72,0.31,1.46,0.34,2.19c0.04,1.01-0.81,1.51-1.74,1.12c-1.02-0.43-1.57-1.25-1.86-2.26c-0.2-0.7-0.37-1.42-0.49-2.14
		c-0.06-0.36-0.22-0.46-0.54-0.47c-1.78-0.06-3.52-0.36-5.23-0.83c-0.74-0.2-1.46-0.48-2.15-0.81c-0.34-0.16-0.63-0.48-0.85-0.8
		c-0.35-0.51-0.04-1.09,0.58-1.11c1.9-0.06,3.8-0.07,5.69-0.14c2.64-0.1,5.28-0.25,7.84-0.97c1.33-0.38,2.61-0.86,3.67-1.79
		c1.1-0.97,1.6-2.2,1.63-3.64C59.58,56.87,59.55,56.75,59.53,56.54z M57.13,50.89c-0.07-1.32-0.51-2.47-1.3-3.49
		c-0.46-0.6-1.04-1.02-1.84-1.05c-1.42-0.05-2.63,0.47-3.72,1.34c-0.5,0.4-0.89,0.89-1.02,1.54c-0.24,1.17,0.18,2.18,0.96,3
		c1.29,1.36,2.94,1.82,4.77,1.63c0.91-0.1,1.56-0.67,1.87-1.53C57.02,51.87,57.04,51.37,57.13,50.89z"/>
	<path d="M127.38,63.95c-0.1-0.68-0.23-1.31-0.29-1.96c-0.05-0.62-0.09-1.26-0.02-1.87c0.04-0.35,0.24-0.74,0.49-1.01
		c0.57-0.61,1.49-0.54,1.94,0.18c0.36,0.57,0.62,1.22,0.82,1.87c0.25,0.78,0.4,1.6,0.58,2.4c0.11,0.49,0.12,0.52,0.62,0.45
		c0.77-0.12,1.54-0.26,2.3-0.42c0.47-0.1,0.48-0.15,0.28-0.58c-0.48-1.02-0.94-2.06-1.14-3.17c-0.08-0.44-0.13-0.91-0.04-1.34
		c0.17-0.78,0.92-1.08,1.64-0.73c0.51,0.25,0.9,0.64,1.15,1.13c0.45,0.88,0.85,1.78,1.25,2.68c0.16,0.36,0.23,0.41,0.49,0.12
		c0.26-0.29,0.5-0.62,0.68-0.96c0.41-0.81,0.59-1.68,0.64-2.59c0.12-2.19-0.3-4.3-0.88-6.4c-0.38-1.38-0.8-2.74-1.21-4.11
		c-0.04-0.15-0.13-0.29-0.24-0.51c-0.16,0.21-0.27,0.36-0.39,0.51c-0.63,0.83-1.2,1.72-1.92,2.48c-1.19,1.25-2.6,2.18-4.4,2.36
		c-0.78,0.08-1.51-0.12-2.21-0.42c-2.99-1.26-5.28-3.24-6.35-6.4c-0.33-0.99-0.56-2-0.31-3.05c0.28-1.2,1.21-1.54,2.12-0.71
		c0.61,0.56,1.08,1.26,1.61,1.91c0.71,0.87,1.4,1.77,2.14,2.62c0.48,0.56,1.09,0.97,1.79,1.25c0.7,0.28,1.34,0.18,1.85-0.38
		c0.62-0.69,1.22-1.4,1.81-2.12c0.72-0.87,1.43-1.75,2.34-2.43c0.18-0.13,0.37-0.25,0.56-0.36c0.74-0.42,1.44-0.34,2.12,0.15
		c1.01,0.73,1.67,1.74,2.26,2.8c1.39,2.51,2.28,5.2,2.87,8c0.4,1.9,0.6,3.81,0.55,5.75c-0.09,3.78-1.96,6.43-5.26,8.13
		c-1.82,0.94-3.8,1.3-5.82,1.45c-2.91,0.21-5.74-0.17-8.44-1.3c-1.02-0.43-1.97-0.98-2.62-1.9c-0.22-0.31-0.39-0.66-0.51-1.02
		c-0.29-0.9,0.3-1.58,1.24-1.43c0.84,0.13,1.66,0.34,2.5,0.49c0.94,0.16,1.88,0.3,2.83,0.44C127,63.97,127.17,63.95,127.38,63.95z"
		/>
	<path d="M93.21,45.53c0.14-0.17,0.28-0.33,0.41-0.51c0.85-1.22,1.83-2.33,3.08-3.15c0.43-0.28,0.92-0.51,1.41-0.65
		c0.95-0.28,1.81,0.02,2.42,0.76c0.55,0.67,1.04,1.4,1.44,2.17c1.33,2.51,2.27,5.17,2.74,7.97c0.19,1.16,0.3,2.34,0.1,3.51
		c-0.14,0.86-0.46,1.63-1.25,2.12c-0.63,0.39-1.16,0.41-1.68-0.11c-0.36-0.36-0.71-0.8-0.87-1.28c-0.54-1.58-0.99-3.19-1.49-4.79
		c-0.25-0.81-0.51-1.61-0.77-2.42c-0.03-0.09-0.07-0.17-0.11-0.25c-0.49-0.83-0.85-1.03-1.67-0.3c-0.51,0.45-0.92,1.05-1.27,1.65
		c-0.94,1.66-1.81,3.36-2.74,5.02c-0.55,0.99-1.12,1.96-1.73,2.91c-0.41,0.64-0.94,1.18-1.67,1.49c-0.76,0.32-1.64,0.06-1.99-0.64
		c-0.12-0.23-0.18-0.54-0.15-0.8c0.15-1.05,0.33-2.09,0.52-3.13c0.48-2.69,0.93-5.39,0.86-8.13c-0.02-1.03-0.14-2.07-0.35-3.07
		c-0.27-1.31-0.97-1.86-2.29-2.03c-0.79-0.1-1.56-0.03-2.3,0.27c-0.25,0.1-0.5,0.18-0.75,0.28c-1.02,0.39-1.7-0.17-2.05-1.06
		c-0.31-0.78-0.04-1.47,0.52-2.05c0.97-1,2.2-1.49,3.55-1.71c1.91-0.31,3.66,0.03,5.14,1.36c1,0.89,1.64,2.03,2.03,3.28
		c0.28,0.88,0.43,1.81,0.63,2.71c0.04,0.19,0.09,0.37,0.14,0.55C93.12,45.52,93.17,45.53,93.21,45.53z"/>
	<path d="M74.53,52.5c0.14,0.14,0.28,0.29,0.43,0.43c1.38,1.26,2.62,2.65,3.7,4.17c0.42,0.59,0.83,1.2,0.97,1.95
		c0.07,0.37-0.05,0.63-0.34,0.85c-0.57,0.42-1.21,0.45-1.87,0.33c-0.96-0.18-1.8-0.64-2.59-1.18c-2.56-1.76-4.93-3.74-6.92-6.14
		c-0.67-0.8-1.2-1.69-1.36-2.75c-0.16-1.09,0.2-1.68,1.26-1.94c0.68-0.17,1.4-0.28,2.1-0.28c1.71,0,3.42,0.08,5.13,0.1
		c0.61,0.01,1.24-0.02,1.84-0.12c0.83-0.14,1.06-0.62,0.59-1.32c-0.44-0.65-0.97-1.25-1.52-1.8c-1.02-1.03-2.11-2-3.13-3.04
		c-0.43-0.43-0.78-0.95-1.1-1.47c-0.17-0.26-0.25-0.6-0.29-0.92c-0.12-0.97,0.77-1.74,1.7-1.43c0.71,0.24,1.42,0.54,2.05,0.95
		c3.14,2.05,5.75,4.64,7.66,7.89c0.35,0.59,0.58,1.27,0.73,1.94c0.24,1.08-0.11,1.81-1.13,2.28c-0.84,0.38-1.73,0.71-2.63,0.88
		c-1.3,0.24-2.63,0.31-3.95,0.44c-0.42,0.04-0.85,0.05-1.27,0.08C74.57,52.42,74.55,52.46,74.53,52.5z"/>
	<path d="M107.43,49.01c0-2.27,0.87-4.2,2.29-5.93c1.72-2.09,3.9-3.43,6.56-4.03c1.65-0.37,2.45,0.68,2.59,1.91
		c0.05,0.49-0.09,0.9-0.46,1.22c-0.55,0.46-1.11,0.91-1.68,1.36c-1.19,0.93-2.32,1.9-3.19,3.15c-1.34,1.93-1.19,3.99,0.41,5.73
		c0.91,0.98,2.03,1.65,3.21,2.25c0.76,0.39,1.52,0.76,2.26,1.16c0.82,0.44,1.26,1.13,1.18,2.08c-0.09,1.09-0.95,1.93-2.08,1.9
		c-0.9-0.03-1.82-0.14-2.68-0.4c-3.06-0.94-5.5-2.73-7.11-5.54C107.86,52.38,107.43,50.75,107.43,49.01z"/>
	<path d="M31.54,53.32c-0.08,0.31-0.16,0.62-0.24,0.92c-0.35,1.32-0.7,2.65-1.06,3.97c-0.07,0.27-0.19,0.53-0.32,0.77
		c-0.25,0.47-0.66,0.74-1.18,0.84c-0.73,0.14-1.22-0.32-1.09-1.06c0.38-2.07,0.77-4.13,1.17-6.2c0.31-1.63,0.68-3.25,1.29-4.8
		c0.2-0.51,0.43-1.01,0.67-1.5c0.32-0.65,0.84-0.7,1.19-0.06c0.42,0.77,0.82,1.57,1.07,2.41c0.63,2.07,1.19,4.17,1.76,6.27
		c0.27,1,0.5,2,0.73,3.01c0.16,0.72-0.59,1.58-1.32,1.51c-0.2-0.02-0.47-0.21-0.56-0.39c-0.3-0.61-0.57-1.24-0.78-1.89
		c-0.35-1.08-0.65-2.18-0.98-3.27c-0.06-0.18-0.14-0.36-0.2-0.54C31.62,53.32,31.58,53.32,31.54,53.32z"/>
	<path d="M73.1,44.37c-0.11,0.3-0.17,0.63-0.32,0.9c-0.58,1.03-2.21,1.66-3.34,1.32c-1.33-0.4-1.49-1.19-1.15-2.28
		c0.36-1.17,2.07-2.13,3.29-1.92C72.41,42.54,73.01,43.33,73.1,44.37z"/>
</g>
</svg>
