<?xml version="1.0" encoding="utf-8"?>
<!-- Generator: Adobe Illustrator 28.0.0, SVG Export Plug-In . SVG Version: 6.00 Build 0)  -->
<svg version="1.1" id="Calque_1" xmlns="http://www.w3.org/2000/svg" xmlns:xlink="http://www.w3.org/1999/xlink" x="0px" y="0px"
	 viewBox="0 0 160 80" style="enable-background:new 0 0 160 80;" xml:space="preserve">
<style type="text/css">
	.st0{fill:#1A1718;}
</style>
<g>
	<g>
		<path class="st0" d="M14.51,23.04c0.82-0.7,1.82-1.06,2.97-1.06c1.07,0,2.03,0.2,2.86,0.59c0.98,0.45,1.6,1.11,1.83,1.97
			c0.06,0.24,0.2,0.42,0.42,0.54c0.14,0.08,0.29,0.12,0.44,0.12c0.08,0,0.17-0.01,0.25-0.04c0.24-0.06,0.44-0.19,0.57-0.4l0,0
			c0.12-0.21,0.16-0.43,0.09-0.67c-0.36-1.32-1.23-2.33-2.6-3.02c-1.13-0.58-2.43-0.87-3.86-0.87c-1.63,0-3.06,0.52-4.23,1.55
			c-1.18,1.03-1.82,2.31-1.89,3.79c-0.06,1.21,0.37,2.3,1.28,3.21c0.56,0.57,1.26,1.01,2.09,1.3c0.82,0.29,1.79,0.44,2.88,0.46h0.01
			c0.01,0,0.02,0,0.03,0c0.01,0,0.02,0,0.03,0c0,0,0,0,0,0c1.67,0.03,2.9,0.43,3.66,1.21c0.55,0.55,0.81,1.2,0.78,1.91
			c-0.05,1.01-0.49,1.88-1.31,2.58c-0.82,0.7-1.82,1.06-2.97,1.06c-1.07,0-2.03-0.19-2.86-0.57c-0.98-0.46-1.6-1.13-1.83-1.99
			c-0.06-0.23-0.2-0.41-0.42-0.54l0,0l0,0c-0.15-0.08-0.3-0.12-0.46-0.12c-0.08,0-0.16,0.01-0.23,0.03
			c-0.25,0.06-0.44,0.19-0.57,0.4l0,0l0,0c-0.12,0.22-0.15,0.44-0.09,0.67c0.36,1.32,1.23,2.34,2.6,3.03
			c1.13,0.57,2.43,0.86,3.86,0.86c1.63,0,3.06-0.52,4.23-1.55c1.18-1.03,1.81-2.31,1.88-3.79c0.06-1.21-0.36-2.29-1.26-3.2
			c-0.56-0.57-1.26-1.01-2.09-1.31c-0.82-0.29-1.79-0.45-2.88-0.47c-0.02,0-0.04,0-0.05,0c-0.01,0-0.02,0-0.02,0l0,0
			c-1.67-0.03-2.9-0.43-3.66-1.21c-0.55-0.55-0.81-1.19-0.78-1.9C13.25,24.61,13.69,23.74,14.51,23.04z"/>
		<path class="st0" d="M32.65,29.52l7.69-7.76c0.18-0.18,0.26-0.39,0.25-0.64c0-0.24-0.1-0.45-0.28-0.62
			c-0.18-0.17-0.41-0.25-0.66-0.25l0,0c-0.25,0.01-0.46,0.1-0.63,0.28l-9.92,10.03v-9.49c0-0.24-0.09-0.45-0.28-0.63
			c-0.17-0.17-0.39-0.25-0.65-0.25c-0.25,0-0.46,0.08-0.65,0.25l0,0l0,0c-0.17,0.18-0.26,0.39-0.26,0.63v16.96
			c0,0.25,0.09,0.46,0.27,0.63c0.18,0.18,0.4,0.27,0.65,0.27c0.26,0,0.47-0.09,0.65-0.27c0.19-0.17,0.28-0.38,0.28-0.63v-4.91
			l2.29-2.32l7.91,7.99c0.18,0.18,0.41,0.27,0.66,0.27c0.24,0,0.46-0.08,0.63-0.24c0.18-0.17,0.28-0.38,0.29-0.63l0,0
			c0-0.25-0.09-0.46-0.26-0.63L32.65,29.52z"/>
		<path class="st0" d="M44.58,20.53c-0.18-0.18-0.39-0.27-0.65-0.27c-0.26,0-0.47,0.09-0.65,0.27C43.1,20.7,43,20.91,43,21.16v17
			c0,0.25,0.09,0.46,0.28,0.63c0.17,0.18,0.39,0.27,0.65,0.27c0.26,0,0.47-0.09,0.65-0.27c0.19-0.17,0.28-0.38,0.28-0.63v-17
			C44.86,20.91,44.76,20.7,44.58,20.53z"/>
		<path class="st0" d="M63.75,20.17c-0.25,0-0.46,0.09-0.65,0.27c-0.18,0.17-0.27,0.38-0.27,0.63v14.49L50.67,20.52
			c-0.19-0.24-0.42-0.36-0.69-0.36c-0.11,0-0.22,0.02-0.34,0.06c-0.41,0.14-0.62,0.43-0.62,0.85v17.09c0,0.25,0.09,0.46,0.28,0.63
			c0.17,0.18,0.39,0.27,0.65,0.27c0.26,0,0.47-0.09,0.65-0.27c0.19-0.17,0.28-0.38,0.28-0.63V23.67l12.16,15.05l0.02,0.02l0.01,0.01
			l0.04,0.04c0,0,0.01,0.01,0.04,0.04l0.01,0.01l0.01,0.01c0.03,0.02,0.04,0.03,0.04,0.03l0.01,0.01l0.01,0.01
			c0.03,0.02,0.06,0.04,0.1,0.06c0.02,0.02,0.03,0.02,0.03,0.02l0.02,0.02l0.02,0.01c0.03,0.01,0.06,0.02,0.1,0.04l0.01,0l0.07,0.02
			l0,0c0.06,0.01,0.12,0.01,0.18,0.01c0.05,0,0.1,0,0.16-0.01c0.02,0,0.04-0.01,0.07-0.02c0.04-0.01,0.07-0.02,0.1-0.03l0.01,0
			l0.02-0.01c0.01-0.01,0.02-0.01,0.03-0.02c0.03-0.01,0.06-0.03,0.1-0.05c0.02-0.01,0.04-0.02,0.06-0.04
			c0.02-0.01,0.03-0.02,0.04-0.03c0.01-0.01,0.02-0.01,0.03-0.02l0,0l0.06-0.06c0.02-0.02,0.05-0.05,0.07-0.08
			c0.02-0.03,0.03-0.04,0.04-0.06c0.02-0.03,0.04-0.06,0.06-0.1c0.01-0.02,0.01-0.04,0.02-0.05c0.01-0.02,0.02-0.06,0.04-0.1
			c0.01-0.03,0.02-0.05,0.02-0.08c0.01-0.03,0.01-0.07,0.01-0.1V21.07c0-0.25-0.09-0.46-0.27-0.63
			C64.23,20.26,64.01,20.17,63.75,20.17z"/>
		<path class="st0" d="M83.38,35.03c-0.01,0-0.03,0-0.04,0c-0.24,0-0.45,0.08-0.62,0.24c-1.51,1.32-3.32,1.98-5.37,1.98
			c-2.18,0-4.08-0.75-5.62-2.24c-1.55-1.48-2.33-3.3-2.33-5.39c0-2.1,0.78-3.92,2.33-5.41c1.55-1.49,3.44-2.24,5.62-2.24
			c1.8,0,3.44,0.53,4.86,1.57c0.16,0.13,0.34,0.19,0.53,0.19c0.05,0,0.1,0,0.15-0.01c0.25-0.03,0.46-0.14,0.62-0.34
			c0.15-0.19,0.22-0.41,0.19-0.66c-0.03-0.25-0.15-0.45-0.36-0.6c-0.88-0.65-1.82-1.14-2.82-1.47c-0.99-0.32-2.06-0.49-3.17-0.49
			c-1.35,0-2.61,0.23-3.76,0.69c-1.15,0.46-2.22,1.16-3.17,2.08c-0.96,0.91-1.69,1.94-2.17,3.05c-0.48,1.11-0.72,2.33-0.72,3.63
			c0,1.29,0.24,2.51,0.72,3.62c0.48,1.11,1.21,2.13,2.16,3.05c0.95,0.92,2.02,1.62,3.17,2.08c1.15,0.46,2.42,0.69,3.76,0.69
			c1.26,0,2.46-0.21,3.56-0.61c1.1-0.41,2.13-1.03,3.06-1.84c0.2-0.17,0.3-0.38,0.31-0.63c0.01-0.25-0.07-0.46-0.25-0.64
			C83.85,35.14,83.63,35.04,83.38,35.03z"/>
		<path class="st0" d="M97.21,37.28h-8.66V21.15c0-0.25-0.09-0.46-0.27-0.63c-0.18-0.18-0.4-0.27-0.65-0.27
			c-0.25,0-0.48,0.09-0.66,0.27c-0.18,0.17-0.27,0.38-0.27,0.63v17.01c0,0.25,0.09,0.46,0.26,0.64l0,0l0,0
			c0.18,0.17,0.41,0.25,0.66,0.25h9.57c0.26,0,0.47-0.09,0.65-0.25c0.18-0.18,0.28-0.39,0.28-0.64c0-0.24-0.09-0.45-0.28-0.63
			C97.68,37.36,97.46,37.28,97.21,37.28z"/>
		<path class="st0" d="M111.79,22c0.26,0,0.47-0.09,0.65-0.25c0.18-0.18,0.28-0.39,0.28-0.64c0-0.24-0.09-0.45-0.28-0.63
			c-0.18-0.18-0.39-0.27-0.65-0.27l-10.73-0.03c-0.01,0-0.02,0-0.03,0c-0.23,0-0.44,0.09-0.62,0.27c-0.19,0.17-0.28,0.38-0.28,0.63
			v17.08c0,0.25,0.09,0.46,0.28,0.63c0.17,0.18,0.39,0.27,0.65,0.27h10.73c0.26,0,0.47-0.09,0.65-0.27
			c0.19-0.17,0.28-0.38,0.28-0.63s-0.09-0.46-0.28-0.63c-0.17-0.18-0.39-0.27-0.65-0.27h-9.8v-6.75h7.3c0.26,0,0.47-0.09,0.65-0.27
			c0.18-0.17,0.28-0.38,0.28-0.63c0-0.25-0.09-0.46-0.28-0.63c-0.18-0.18-0.39-0.27-0.65-0.27h-7.3v-6.75L111.79,22z"/>
		<path class="st0" d="M128.97,33.49v-0.01l-5.48-12.7c-0.02-0.04-0.04-0.09-0.07-0.15l-0.13,0.03c-0.01-0.01-0.02-0.02-0.03-0.03
			c-0.01-0.01-0.02-0.02-0.03-0.03c0.02-0.02,0.05-0.03,0.08-0.03c0.01,0,0.01,0,0.02,0l-0.07,0.06l0.08-0.06
			c0.03,0.01,0.04,0.02,0.05,0.02c0,0-0.01-0.01-0.03-0.03c-0.04-0.05-0.06-0.07-0.06-0.08l-0.03-0.03h-0.01
			c-0.01,0-0.01-0.01-0.02-0.02l-0.01-0.01l-0.06-0.05c-0.1-0.07-0.22-0.11-0.34-0.13l-0.02,0.1v-0.1h-0.06
			c-0.06-0.01-0.08-0.01-0.09-0.01c-0.01,0-0.03,0-0.1,0.01h-0.07l-0.01,0c-0.11,0.02-0.21,0.06-0.31,0.12
			c-0.02,0.01-0.04,0.03-0.07,0.05c-0.05,0.04-0.07,0.05-0.08,0.06c-0.01,0.01-0.02,0.02-0.06,0.07l-0.06,0.06l-0.01,0.02
			c-0.03,0.06-0.05,0.11-0.07,0.15l-5.48,12.7v0.01l-1.87,4.32c-0.1,0.23-0.1,0.46,0,0.69c0.09,0.23,0.26,0.39,0.5,0.48
			c0.1,0.04,0.15,0.06,0.15,0.06l0.02,0.01h0.19c0.41,0,0.7-0.19,0.85-0.55l1.65-3.8h9.71l1.65,3.8c0.15,0.37,0.44,0.55,0.85,0.55
			c0.12,0,0.24-0.02,0.35-0.07c0.24-0.09,0.4-0.25,0.5-0.48c0.1-0.23,0.1-0.46,0-0.69L128.97,33.49z M118.54,32.92l4.09-9.48
			l4.09,9.48H118.54z"/>
		<path class="st0" d="M148.38,20.44c-0.18-0.18-0.41-0.27-0.66-0.27c-0.25,0-0.46,0.09-0.65,0.27c-0.18,0.17-0.27,0.38-0.27,0.63
			v14.49l-12.17-15.04c-0.19-0.24-0.42-0.36-0.69-0.36c-0.11,0-0.22,0.02-0.34,0.06c-0.41,0.14-0.62,0.43-0.62,0.85v17.09
			c0,0.25,0.09,0.46,0.28,0.63c0.17,0.18,0.39,0.27,0.65,0.27c0.26,0,0.47-0.09,0.65-0.27c0.19-0.17,0.28-0.38,0.28-0.63V23.67
			L147,38.72l0.02,0.02l0.01,0.01l0.04,0.04c0,0,0.01,0.01,0.04,0.04l0.01,0.01l0.01,0.01c0.03,0.02,0.04,0.03,0.04,0.03l0.01,0.01
			l0.01,0.01c0.03,0.02,0.06,0.04,0.1,0.06c0.02,0.02,0.03,0.02,0.03,0.02l0.02,0.02l0.02,0.01c0.03,0.01,0.06,0.02,0.1,0.04l0.01,0
			l0.07,0.02l0,0c0.06,0.01,0.12,0.01,0.18,0.01c0.05,0,0.1,0,0.16-0.01c0.02,0,0.04-0.01,0.07-0.02c0.04-0.01,0.07-0.02,0.1-0.03
			l0.01,0l0.02-0.01c0.01-0.01,0.02-0.01,0.03-0.02c0.03-0.01,0.06-0.03,0.1-0.05c0.02-0.01,0.04-0.02,0.06-0.04
			c0.02-0.01,0.03-0.02,0.04-0.03c0.01-0.01,0.02-0.01,0.03-0.02l0,0l0.06-0.06c0.02-0.02,0.05-0.05,0.07-0.08
			c0.02-0.03,0.03-0.04,0.04-0.06c0.02-0.03,0.04-0.06,0.06-0.1c0.01-0.02,0.01-0.04,0.02-0.05c0.01-0.02,0.02-0.06,0.04-0.1
			c0.01-0.03,0.02-0.05,0.02-0.08c0.01-0.03,0.01-0.07,0.01-0.1V21.07C148.65,20.82,148.56,20.61,148.38,20.44z"/>
	</g>
	<path class="st0" d="M61.38,51.87c0.23-0.09,0.41-0.23,0.55-0.4c0.14-0.18,0.21-0.38,0.21-0.6c0-0.47-0.15-0.82-0.46-1.05
		c-0.31-0.23-0.73-0.35-1.27-0.35h-1.69v5.17h2.05c0.53,0,0.94-0.12,1.25-0.37c0.31-0.25,0.46-0.61,0.46-1.08
		c0-0.33-0.1-0.62-0.3-0.87C61.98,52.06,61.72,51.91,61.38,51.87z M59.42,50.02h0.99c0.33,0,0.59,0.07,0.76,0.21
		c0.18,0.14,0.26,0.35,0.26,0.63c0,0.26-0.08,0.45-0.25,0.6c-0.16,0.14-0.38,0.21-0.64,0.21h-1.13V50.02z M61.51,53.85
		c-0.18,0.16-0.42,0.24-0.74,0.24h-1.35v-1.88h1.31h0.05c0.31,0.01,0.55,0.11,0.73,0.28c0.18,0.18,0.27,0.41,0.27,0.69
		C61.77,53.47,61.69,53.69,61.51,53.85z"/>
	<path class="st0" d="M77.24,47.72c-0.31,0.1-0.56,0.95-0.44,1.32c0.08,0.23,0.43,0.5,0.54,0.27c0.09-0.22,0.54-0.75,0.73-0.84
		c0.12-0.07,0.24-0.01,0.27-0.01c0.05,0-0.08-0.19-0.23-0.32C77.88,47.94,77.53,47.68,77.24,47.72z"/>
	<path class="st0" d="M82.63,48.89c-0.78,1.28-2.54,3.95-3.47,4.78c0-0.17-0.03-1.06,0.22-1.89c0.22-0.81,0.44-1.47,0.69-1.45
		c0.1,0,0.13,0.05,0.13,0.01c-0.11-0.35-0.74-0.85-1.05-0.83c-0.04,0-0.09,0.01-0.15,0.08c-0.28,0.32-0.53,1.05-0.73,1.97
		c-0.01,0.04-0.02,0.09-0.03,0.13c-0.67,0.86-1.68,2.07-2.27,2.24c0.01-0.53,0.95-3.48,1.49-3.43c0.11,0.01,0.19,0.08,0.17,0.02
		c-0.09-0.32-0.75-0.84-1.05-0.83c-0.05,0-0.13,0.01-0.17,0.08c-0.64,0.66-1.72,3.48-1.51,4.23c0.07,0.23,0.48,0.55,0.7,0.62
		c0.07,0.01,0.11,0.01,0.16,0.01c0.6-0.05,1.61-1.32,2.4-2.46c-0.11,0.82-0.09,1.54,0.03,1.97c0.03,0.1,0.44,0.51,0.7,0.5
		c0.4,0,3.15-3.4,3.81-5.73C82.75,48.78,82.69,48.79,82.63,48.89z"/>
	<path class="st0" d="M83.77,49.28c0.09-0.22,0.54-0.75,0.73-0.84c0.12-0.07,0.24-0.01,0.27-0.01c0.05,0-0.08-0.19-0.23-0.32
		c-0.22-0.19-0.58-0.45-0.86-0.41c-0.31,0.1-0.56,0.95-0.44,1.32C83.31,49.24,83.66,49.51,83.77,49.28z"/>
	<path class="st0" d="M85.09,51.13c-0.57,0.76-1.95,2.57-2.68,2.78c0.01-0.53,0.95-3.48,1.49-3.43c0.11,0.01,0.19,0.08,0.17,0.02
		c-0.09-0.32-0.75-0.84-1.05-0.83c-0.05,0-0.13,0.01-0.17,0.08c-0.64,0.66-1.72,3.48-1.51,4.23c0.07,0.23,0.48,0.55,0.7,0.62
		c0.07,0.01,0.11,0.01,0.16,0.01c0.78-0.07,2.24-2.18,3.02-3.4C85.26,51.17,85.17,51.06,85.09,51.13z"/>
	<path class="st0" d="M104.98,51c-0.54,0.75-1.78,2.51-2.47,2.76c-0.09-0.36,0.11-1.28,0.48-2.15c0.25-0.57,0.46-1.04,0.59-1.24
		c0.11-0.18,0.23-0.3,0.32-0.3c0.11,0.01,0.16,0.08,0.15,0.03c-0.08-0.32-0.67-0.82-0.96-0.82c-0.05,0-0.1,0.01-0.15,0.07
		c-0.54,0.57-1.13,1.7-1.58,2.36c-0.42,0.6-1.34,1.76-1.85,2.02c-0.1-0.37,0.21-1.5,0.59-2.37c0.26-0.57,0.59-1.24,0.78-1.22
		c0.11,0.01,0.18,0.08,0.16,0.03c-0.09-0.34-0.69-0.84-0.98-0.83c-0.04,0-0.1,0.01-0.15,0.08c-0.18,0.2-0.43,0.63-0.66,1.12
		c-0.17,0.09-0.38,0.17-0.65,0.2c-0.47,0.04-0.84-0.25-1.17-0.65c-0.03-0.04-0.19-0.14-0.31-0.13c-0.15,0.01-0.41,0.4-0.41,0.53
		c-0.01,0.13,0.21,0.52,0.3,0.63c-0.46,1.32-1.64,3.39-2.39,3.1c-0.75-0.31,0.62-4.67,2.79-4.68c0.08,0,0.19,0.02,0.31,0.04
		c0.05,0,0.08,0,0.01-0.04c-0.1-0.08-0.33-0.22-0.79-0.22c-1.7,0.01-3.54,1.7-3.51,3.56c-0.32-0.2-0.72-0.38-0.97-0.47
		c0.22-0.55,1.42-3.8,1.04-5.79c-0.14-0.72-0.48-1.28-1.14-1.49c-0.15-0.05-0.31-0.07-0.46-0.07c-2.01,0.01-4.71,3.65-4.31,5.62
		c0.09,0.45,0.37,0.7,0.65,0.69c0.17,0,0.59-0.16,0.96-0.62c0,0-0.51,0.26-0.81,0.26c-0.13,0-0.15-0.11-0.16-0.22
		c-0.11-1.34,2.01-5.43,3.79-5.44c0.14,0,0.27,0.02,0.4,0.07c0.28,0.1,0.43,0.37,0.5,0.74c0.3,1.58-1.06,5.09-1.42,6.06
		c-0.28-0.06-0.55-0.09-0.84-0.08c-3.03,0.02-6.12,3.54-5.49,6.01c0.25,0.94,0.84,1.29,1.47,1.26c2.27-0.08,4.82-4.06,5.76-6.81
		c0.43,0.11,0.72,0.24,1.04,0.39c0.01,0.18,0.04,0.37,0.09,0.55c0.13,0.49,0.62,0.98,1.18,1.01c1.29,0.07,3.29-1.8,3.17-3.52
		c0.07,0.03,0.19,0.05,0.37,0.05c0.19,0,0.44-0.03,0.68-0.12c0.06-0.02,0.12-0.05,0.18-0.08c-0.01,0.01-0.01,0.03-0.02,0.04
		c-0.42,1.02-0.74,2.33-0.59,2.88c0.08,0.31,0.54,0.66,0.74,0.65c0,0,0.07,0,0.1,0c0.68-0.16,1.8-2.02,2.67-3.36
		c-0.29,0.6-0.51,1.51-0.55,2.11c-0.01,0.19-0.02,0.43,0.01,0.56c0.06,0.23,0.38,0.53,0.6,0.63c0.07,0.05,0.15,0.08,0.21,0.08
		c0.72,0,2.11-2.17,2.84-3.4C105.12,51.04,105.04,50.93,104.98,51z M86.33,58.55c-0.32,0-0.64-0.21-0.74-0.69
		c-0.52-2.61,2.76-5.51,5.19-5.53c0.22,0,0.43,0.02,0.63,0.07C90.49,55.08,88.05,58.54,86.33,58.55z"/>
	<path class="st0" d="M114.13,52.99h-0.22c-0.75,0.25-1.85,0.77-2.67,1.16c-0.14-0.28-0.36-0.51-0.67-0.67
		c-0.39-0.27-0.91-0.31-1.34-0.3c-0.42,0.01-0.82,0.11-1.01,0.26c0.44-0.88,2.72-2.92,3.47-3.06c0.08-0.26-0.68-1.16-0.73-1
		c-0.12,0.5-1.33,0.9-2,0.9c-0.2,0-0.34-0.04-0.4-0.1c0.05-0.13,0.46-0.89,0.42-1.05c-0.06-0.27-0.4-0.55-0.56-0.55
		c-0.09,0-0.39,0.47-0.22,1.23c0.03,0.15,0.09,0.24,0.14,0.33c-0.22,0.54-0.83,1.53-1.32,2.31c-0.45,0.7-0.96,1.31-1.21,1.27
		c0.05-0.83,0.45-2.47,0.98-4.18c0.23-0.74,0.43-1.37,0.67-2.01c1.65-0.33,4.74-0.18,4.66-0.2c-1.56-0.38-2.8-0.46-4.43-0.34
		c0.28-0.74,0.65-1.77,1.03-1.58c0.23,0.14-0.36-0.6-0.92-0.56c-0.09,0-0.21,0.1-0.32,0.26c-0.2,0.26-0.4,0.67-0.6,1.18l-0.3,0.82
		c-1.11,0.17-2.16,0.54-1.99,1.12c0.12,0.41,0.53,0.66,0.69,0.65c-0.3-0.19,0.13-0.79,1.06-1.07c-0.22,0.63-0.4,1.16-0.56,1.73
		c-0.69,2.47-0.89,3.72-0.81,4.11c0.03,0.14,0.06,0.17,0.07,0.19c0.12,0.19,0.39,0.46,0.49,0.51c0.12,0.06,0.23,0.11,0.34,0.05
		c0.31-0.16,0.85-0.96,1.31-1.78c0.47-0.86,0.97-1.61,1.3-2.33c0.18,0.15,0.44,0.22,0.72,0.22c0.23,0,0.45-0.04,0.67-0.11
		c-1.01,0.63-2.69,2.59-2.72,3.36c-0.01,0.22,0.4,0.69,0.55,0.69c0.1,0,0.37-0.35,0.81-0.62c0.21-0.06,0.55-0.15,0.91-0.15
		c0.48,0,0.99,0.16,1.14,0.77v0.01c-0.14,0.06-0.24,0.12-0.3,0.15c0,0-2.59,1.32-3.8,2.54c-0.59,0.6-0.88,1.19-0.88,1.67
		c0,0.5,0.32,0.88,0.95,0.98c0.06,0.01,0.13,0.01,0.19,0.01c1.26,0,3.32-1.79,4.21-3.24c0.32-0.52,0.5-1.09,0.5-1.63
		c0-0.24-0.03-0.47-0.12-0.68C112.21,53.84,113.1,53.41,114.13,52.99z M110.57,54.73c0,1.24-1.82,3.59-3.25,4.27
		c-0.29,0.14-0.53,0.2-0.71,0.2c-0.29,0-0.45-0.16-0.45-0.43c0-0.44,0.42-1.19,1.3-1.97c1.73-1.55,2.89-2.03,2.89-2.03
		c0.08-0.03,0.14-0.08,0.21-0.11V54.73z"/>
	<path class="st0" d="M78.08,44.42c-0.08-0.38-0.33-0.66-0.72-0.81c-0.18-0.06-0.37,0.03-0.43,0.2c-0.06,0.18,0.03,0.37,0.2,0.43
		c0.22,0.08,0.27,0.2,0.29,0.31c0.05,0.25-0.01,0.87-0.96,2.28c-0.61,0.91-1.5,2.01-2.65,3.28c-1.6,1.78-3.26,3.38-3.82,3.91
		c-0.24-0.5-0.09-2.11,0.99-4.16c0.76-1.45,0.84-2.87,0.22-3.98c-0.65-1.16-2-1.87-3.81-2c-2.07-0.15-5.4,0.5-9.12,1.34
		c-0.4-0.25-0.82-0.49-1.24-0.72c-2.3-1.24-4.93-2.18-7.81-2.81c-3.42-0.74-6.3-1.02-8.57-0.81c-1.78,0.16-3.19,0.62-4.18,1.35
		c-1.24,0.92-1.41,1.97-1.43,2.14c-0.03,0.18-0.24,1.59,0.8,2.83c1.02,1.22,2.85,1.84,5.45,1.84c0.08,0,0.16,0,0.24,0
		c3.71-0.05,8.87-1.27,13.86-2.44c0.93-0.22,1.86-0.44,2.76-0.64c1.37,0.87,2.44,1.75,3.25,2.53c1.95,1.87,2.8,3.53,3.02,3.98v2.18
		h0.7v-2.18l1.65-2.99h-0.78l-1.17,2.26c-0.41-0.76-1.3-2.15-2.91-3.71c-0.85-0.82-1.79-1.58-2.82-2.28
		c3.41-0.76,6.41-1.32,8.28-1.18c1.58,0.11,2.74,0.7,3.27,1.66c0.51,0.91,0.43,2.09-0.23,3.34c-1.02,1.94-1.42,3.91-0.99,4.79
		c0.16,0.33,0.4,0.43,0.58,0.46c0.02,0,0.04,0,0.06,0c0.08,0,0.17-0.03,0.23-0.09c0.02-0.02,2.08-1.95,4.06-4.14
		c1.17-1.29,2.08-2.42,2.71-3.36C77.86,45.96,78.21,45.05,78.08,44.42z M55.23,45.93c-4.96,1.16-10.08,2.37-13.72,2.42
		c-2.51,0.04-4.24-0.5-5.16-1.58c-0.37-0.44-0.59-0.95-0.66-1.53c-0.05-0.44,0-0.76,0-0.76c0-0.01,0-0.03,0.01-0.04
		c0-0.01,0.1-0.88,1.16-1.67c0.89-0.66,2.18-1.07,3.84-1.22c0.47-0.04,0.96-0.06,1.49-0.06c1.94,0,4.24,0.29,6.88,0.86
		c3.44,0.75,6.15,1.89,8.24,3.09C56.62,45.6,55.93,45.76,55.23,45.93z"/>
</g>
</svg>
