<?xml version="1.0" encoding="utf-8"?>
<!-- Generator: Adobe Illustrator 28.0.0, SVG Export Plug-In . SVG Version: 6.00 Build 0)  -->
<svg version="1.1" id="Calque_1" xmlns="http://www.w3.org/2000/svg" xmlns:xlink="http://www.w3.org/1999/xlink" x="0px" y="0px"
	 viewBox="0 0 160 80" style="enable-background:new 0 0 160 80;" xml:space="preserve">
<style type="text/css">
	.st0{fill:#282461;}
</style>
<g>
	<path class="st0" d="M80.27,24.65c-0.51,0.76-1,1.41-1.39,2.12c-0.15,0.26-0.08,0.66-0.06,0.99c0.07,1.14,0.31,2.29,0.21,3.41
		c-0.27,2.91-2.2,4.32-4.85,4.94c-3.35,0.78-6.67,0.41-9.98-0.28c-4.39-0.92-8.78-1.85-13.18-2.7c-3.19-0.61-6.38-0.79-9.48,0.57
		c-2.16,0.95-4.03,2.24-5.37,4.22c-0.05,0.07-0.14,0.1-0.35,0.26c0.65-2.57,1.86-4.57,3.96-5.99c2.14-1.45,4.55-1.9,7.08-1.98
		c5.15-0.17,10.02,1.2,14.87,2.68c2.85,0.87,5.74,1.58,8.74,1.54c0.94-0.01,1.91-0.27,2.82-0.56c1.27-0.39,1.98-1.32,2.16-2.75
		c-0.16,0.08-0.27,0.1-0.34,0.17c-1.65,1.84-3.7,2.29-5.96,1.51c-1.17-0.4-2.38-0.44-3.55-0.72c-4.29-1.02-6.07-4.47-5.55-8.24
		c0.38-2.76,1.78-5.01,3.69-6.96c0.39-0.39,0.44-0.71,0.26-1.2c-0.52-1.49-0.63-3-0.28-4.56c0.06-0.25-0.22-0.65-0.45-0.88
		c-0.85-0.84-1.47-1.76-1.27-3.14c0.46,0.35,0.85,0.67,1.27,0.96c0.99,0.69,1.98,1.18,3.27,0.62c0.72-0.31,1.6-0.33,2.41-0.36
		c3.84-0.17,7.64,0.26,11.44,0.64c1.26,0.13,2.54-0.06,3.82-0.13c2.15-0.11,4.31-0.26,6.46-0.33c0.93-0.03,1.92-0.05,2.8,0.22
		c2.21,0.66,3.63-0.58,5.07-1.85c0.11-0.09,0.21-0.19,0.33-0.31c0.47,1.38-0.04,2.9-1.37,3.93c-0.49,0.38-0.57,0.7-0.53,1.34
		c0.07,1.16-0.12,2.34-0.32,3.5c-0.08,0.47-0.06,0.75,0.29,1.1c1.79,1.75,3.18,3.75,3.81,6.22c0.99,3.86-0.37,7.61-4.2,9.19
		c-0.53,0.22-1.09,0.36-1.65,0.48c-1.43,0.31-2.89,0.53-4.31,0.88c-1.86,0.46-3.33-0.24-4.67-1.42c-0.18-0.16-0.36-0.33-0.55-0.48
		c-0.04-0.03-0.11-0.02-0.16-0.03c0.08,1.59,1.48,2.86,3.33,3.16c3.46,0.56,6.73-0.35,10.02-1.18c3.49-0.88,6.96-1.93,10.5-2.56
		c3.38-0.6,6.84-0.62,10.13,0.74c2.49,1.03,4.16,2.85,4.96,5.49c-0.24-0.27-0.47-0.56-0.73-0.81c-3.02-2.75-6.61-4.05-10.63-3.61
		c-3.52,0.39-6.99,1.17-10.47,1.82c-3.27,0.61-6.5,1.44-9.79,1.89c-2.46,0.33-4.98,0.14-7.35-0.81c-2.4-0.96-3.77-3.24-3.25-6.16
		c0.27-1.48-0.12-2.48-0.94-3.52C80.75,25.43,80.54,25.06,80.27,24.65z M65.17,18.17c-2.45,2.29-3.61,4.98-3,8.29
		c0.5,2.72,1.95,3.95,4.58,3.97c3.02,0.01,5.27-1.58,7.35-3.52c0.13-0.13,0.22-0.37,0.23-0.56c0.02-1.04,0.01-2.08,0.01-3.16
		C70.64,23.01,67.46,21.46,65.17,18.17z M86.02,22.99c0.09,0.93,0.17,1.82,0.28,2.71c0.04,0.28,0.11,0.62,0.3,0.8
		c1.77,1.77,3.77,3.14,6.28,3.65c2.73,0.56,5.13-0.95,5.58-3.58c0.33-1.91,0.12-3.79-0.81-5.49c-0.58-1.05-1.43-1.96-2.21-2.99
		C92.95,21.48,89.76,22.93,86.02,22.99z M78.46,27.78c-0.08-0.01-0.16-0.02-0.23-0.03c-0.74,0.87-1.5,1.74-2.22,2.63
		c-0.12,0.14-0.12,0.4-0.13,0.6c-0.11,1.8-0.96,2.94-2.69,3.46c-2.83,0.86-5.65,0.39-8.43-0.26c-4.91-1.15-9.65-3.05-14.74-3.45
		c-2.99-0.23-5.94-0.16-8.72,1.13c-1.71,0.79-3.05,2.01-3.9,3.73c0.2-0.07,0.36-0.18,0.51-0.31c1.58-1.28,3.35-2.17,5.32-2.67
		c3.15-0.8,6.26-0.3,9.35,0.29c4.4,0.84,8.78,1.8,13.17,2.71c2.95,0.61,5.89,0.71,8.82-0.13c1.94-0.55,3.5-1.61,3.85-3.69
		C78.64,30.49,78.46,29.12,78.46,27.78z M86.12,27.06c-0.24,0.85-0.52,1.83-0.77,2.81c-0.05,0.21-0.1,0.55,0.01,0.66
		c1.2,1.16,2.34,2.53,4.24,2.26c1.98-0.28,3.96-0.6,5.89-1.09c3.05-0.78,5.54-3.44,5.01-7.7c-0.38-3.04-1.98-5.39-4.2-7.5
		c-0.24,0.48-0.43,0.84-0.62,1.22c0.27,0.3,0.5,0.58,0.76,0.84c1.9,1.93,2.77,4.27,2.61,6.94c-0.16,2.65-0.96,4.43-3.69,5.04
		c-1.68,0.38-3.41,0.18-4.93-0.69C88.95,29,87.55,27.99,86.12,27.06z M93.99,16.95c-1.41-1.2-2.97-2.03-4.7-2.52
		c-0.22-0.06-0.55,0.05-0.75,0.19c-2.16,1.5-3.82,3.49-5.47,5.51C85.04,22.08,91.28,21.37,93.99,16.95z M66.81,16.45
		c1.99,3.83,7.83,5.75,10.62,3.64c-1.65-2.03-3.34-4.01-5.55-5.47c-0.28-0.19-0.79-0.3-1.07-0.17
		C69.47,15.06,68.18,15.76,66.81,16.45z M72.43,14.06c1.67,1.75,3.39,3.54,5.08,5.36c0.68,0.74,0.6,1.13-0.35,1.46
		c-0.87,0.31-1.83,0.6-2.73,0.56c-3.13-0.13-5.75-1.38-7.64-3.97c-0.11-0.16-0.26-0.29-0.37-0.42c-0.33,0.26-0.61,0.48-0.91,0.72
		c2.42,3.55,5.8,4.91,9.7,4.97c-0.2,1.11-0.39,2.17-0.62,3.47c0.35-0.23,0.44-0.26,0.49-0.32c1.37-1.57,2.73-3.15,4.1-4.71
		c0.46-0.52,0.4-0.97,0.21-1.63c-0.53-1.83-1.91-2.93-3.14-4.22C75.09,14.11,73.83,13.75,72.43,14.06z M66.31,9.31
		c4.17,1.24,8.33,0.54,12.49,0.05C74.64,8.97,70.48,8.22,66.31,9.31z M92.17,11.21c-3.47-0.99-6.93-0.57-10.4-0.09
		c1.71,0.39,3.42,0.73,5.15,1.01c0.49,0.08,1.11,0.14,1.5-0.08C89.59,11.37,90.82,11.1,92.17,11.21z M82.58,16.78
		c1.51-1.36,3.04-2.74,4.68-4.21c-1.95,0.14-3.82,0.2-5.27,1.37C82.21,14.97,82.39,15.85,82.58,16.78z M81.79,22.12
		c-0.36,0.59-0.72,1.17-1.07,1.76c-0.07,0.12-0.12,0.33-0.07,0.42c0.55,0.87,1.13,1.72,1.75,2.64
		C83.85,24.08,83.76,23.41,81.79,22.12z M74.15,12.87c1.55,1.38,2.94,2.62,4.31,3.83c0.14-0.7,0.32-1.36,0.39-2.04
		c0.02-0.22-0.15-0.57-0.34-0.7C77.24,13.1,75.81,12.9,74.15,12.87z M64.59,15.94c0.71-0.34,1.17-0.73,1.02-1.6
		c-0.16-0.93,0.04-1.76,1.04-2.23c-0.84-0.37-1.61-0.7-2.4-1.05C63.76,12.77,63.97,14.35,64.59,15.94z M94.29,16.32
		c0.58-0.99,0.6-1.12-0.43-1.61c-0.98-0.46-2.02-0.8-3.06-1.1c-0.35-0.1-0.78,0.06-1.37,0.13C91.2,14.67,92.72,15.48,94.29,16.32z
		 M69.71,13.26c-1.01-0.78-2.53-1-3.23-0.43c-0.64,0.52-0.55,1.19-0.33,1.88C67.36,14.22,68.52,13.75,69.71,13.26z M90.93,12.94
		c1.45,0.6,2.7,1.11,3.96,1.63c0.19-1.31-0.26-2.22-1.13-2.15C92.84,12.49,91.95,12.74,90.93,12.94z M79.43,13.73
		c0.14-0.12,0.39-0.33,0.64-0.54c-1.36-1.16-3.49-1.49-4.34-0.85C76.87,12.77,78.1,13.23,79.43,13.73z M96.85,10.4
		c0.83-0.64,1.61-1.4,1.72-2.66c-1,0.58-1.94,1.12-2.85,1.64C96.08,9.71,96.43,10.03,96.85,10.4z M81.43,14.52
		c-0.81,1.21-0.8,2.36-0.2,3.58C82.15,17.43,82.25,15.75,81.43,14.52z M78.16,11.42c0,0.09,0.01,0.17,0.01,0.26
		c0.53,0.21,1.08,0.38,1.59,0.63c0.49,0.24,0.87,0.59,1.48,0.16c0.42-0.3,0.98-0.39,1.48-0.57c0-0.06-0.01-0.12-0.01-0.18
		C81.2,11.62,79.68,11.52,78.16,11.42z M73.86,13.47c-1.15-1.01-1.77-1.11-3.72-0.48C71.32,13.14,72.51,13.29,73.86,13.47z"/>
	<path class="st0" d="M107.86,49.29c2.58,0.15,5.1,0.15,7.58,0.49c2.12,0.3,2.86,1.52,2.86,3.86c0,1.99-0.9,3.3-2.86,3.63
		c-1.63,0.28-3.32,0.25-4.99,0.33c-0.84,0.04-1.69,0.01-2.59,0.01C107.86,54.87,107.86,52.21,107.86,49.29z M109.54,50.74
		c0,1.94,0,3.75,0,5.63c0.42,0,0.78,0,1.14,0c1.13-0.01,2.26,0.06,3.38-0.04c1.67-0.14,2.52-1.13,2.53-2.76
		c0.02-1.67-0.8-2.69-2.46-2.81C112.63,50.66,111.11,50.74,109.54,50.74z"/>
	<path class="st0" d="M19.88,57.58c-0.49,0.02-0.82,0.12-1.08,0.02c-0.24-0.08-0.57-0.36-0.57-0.56c-0.04-2.49-0.03-4.98-0.03-7.72
		c2.47,0.12,4.88,0.16,7.28,0.4c1.18,0.12,1.71,0.88,1.81,1.87c0.12,1.22-0.28,1.97-1.37,2.52c-0.21,0.11-0.42,0.21-0.67,0.33
		c0.8,1.02,1.56,1.99,2.34,2.98c-1.2,0.42-1.76,0.26-2.43-0.64c-1.69-2.26-1.69-2.26-4.52-2.22c-0.21,0-0.42,0.02-0.75,0.04
		C19.88,55.58,19.88,56.53,19.88,57.58z M19.9,53.52c1.62-0.08,3.19-0.12,4.75-0.26c0.73-0.06,0.98-0.65,0.96-1.33
		c-0.02-0.68-0.45-1.13-1.07-1.16c-1.53-0.07-3.07-0.02-4.64-0.02C19.9,51.67,19.9,52.51,19.9,53.52z"/>
	<path class="st0" d="M99.07,54.42c0.82,1.06,1.58,2.04,2.36,3.03c-1.37,0.4-1.87,0.37-2.48-0.75c-1.01-1.85-2.46-2.5-4.46-2.13
		c-0.2,0.04-0.41,0.03-0.73,0.05c0,0.98,0,1.93,0,2.94c-0.58,0-1.05,0-1.65,0c0-1.35,0-2.68,0-4c0-1.33,0-2.67,0-4.24
		c2.44,0.11,4.82,0.15,7.19,0.37c1.12,0.11,1.71,0.87,1.79,1.78c0.14,1.42-0.22,2.11-1.37,2.68C99.55,54.23,99.38,54.29,99.07,54.42
		z M93.77,53.45c1.1,0,2.1,0.02,3.1-0.01c0.57-0.02,1.15-0.05,1.7-0.19c0.64-0.16,1-0.68,0.82-1.31c-0.12-0.43-0.52-1.07-0.84-1.09
		c-1.58-0.11-3.18-0.05-4.78-0.05C93.77,51.69,93.77,52.5,93.77,53.45z"/>
	<path class="st0" d="M59.97,53.97c0,1.29,0,2.4,0,3.59c-0.56,0-1.06,0-1.61,0c0-2.7,0-5.36,0-8.07c0.51,0,1.01,0,1.59,0
		c0,1.05,0,2.07,0,3.16c2.28,0,4.48,0,6.82,0c0-1.04,0-2.08,0-3.17c0.61,0,1.08,0,1.64,0c0,2.69,0,5.37,0,8.13
		c-0.38,0-0.73,0.08-1.03-0.02c-0.23-0.08-0.54-0.36-0.56-0.58c-0.06-0.79,0.02-1.58-0.04-2.37C66.75,54.41,66.45,54,66.27,54
		C64.21,53.95,62.15,53.97,59.97,53.97z"/>
	<path class="st0" d="M132.91,56.06c1.76,0.17,3.49,0.36,5.22,0.48c0.43,0.03,0.95-0.06,1.3-0.28c0.32-0.2,0.64-0.67,0.64-1.02
		c0-0.29-0.44-0.77-0.75-0.82c-1.16-0.2-2.35-0.26-3.52-0.39c-0.48-0.05-0.97-0.12-1.43-0.26c-0.98-0.3-1.48-0.97-1.51-1.93
		c-0.02-0.89,0.49-1.78,1.36-2.08c2.19-0.77,4.41-0.64,6.6,0.04c0.83,0.26,0.27,0.81,0.26,1.08c-1.62-0.11-3.2-0.24-4.78-0.32
		c-0.35-0.02-0.78,0-1.05,0.19c-0.32,0.22-0.67,0.63-0.68,0.97c-0.01,0.26,0.45,0.73,0.75,0.78c1.31,0.2,2.64,0.27,3.97,0.4
		c1.88,0.17,3.01,1.63,2.29,3.16c-0.27,0.58-0.95,1.17-1.56,1.37c-2.24,0.71-4.5,0.5-6.73-0.19
		C132.43,56.94,132.93,56.36,132.91,56.06z"/>
	<path class="st0" d="M74.53,57.51c1.02-1.7,1.99-3.3,2.96-4.9c0.47-0.78,0.96-1.55,1.43-2.33c0.73-1.23,1.92-1.23,2.67,0
		c1.28,2.1,2.57,4.2,3.85,6.3c0.17,0.28,0.32,0.57,0.49,0.86c-1.32,0.4-1.65,0.32-2.27-0.83c-0.44-0.81-0.98-1.17-1.93-1.1
		c-1.12,0.09-2.25,0.06-3.37,0.01c-0.67-0.03-1.04,0.22-1.36,0.8C76.19,57.77,76.17,57.75,74.53,57.51z M82.29,54.31
		c-0.69-1.2-1.34-2.31-2.07-3.57c-0.74,1.29-1.36,2.38-2.05,3.57C79.6,54.31,80.88,54.31,82.29,54.31z"/>
	<path class="st0" d="M51.58,50.02c-0.08,0.37-0.15,0.69-0.18,0.85c-1.51-0.11-2.97-0.31-4.42-0.3c-1.9,0.02-3.06,1.22-3.08,2.98
		c-0.02,1.85,1.05,2.98,3.03,2.97c1.5,0,2.99-0.23,4.63-0.38c0.02,0.1,0.09,0.44,0.17,0.86c-1.63,0.76-3.33,0.93-5.06,0.77
		c-0.75-0.07-1.51-0.22-2.22-0.47c-1.48-0.51-2.16-1.63-2.26-3.19c-0.24-3.92,2.14-4.54,4.77-4.86
		C48.5,49.07,50.3,49.43,51.58,50.02z"/>
	<path class="st0" d="M34,49.49c0.61,0,1.08,0,1.67,0c0,1.41,0,2.77,0,4.13c0,0.88,0,1.76,0,2.65c0,1.51,0,1.51-1.66,1.25
		c0-1.3,0-2.63,0-3.96C34,52.22,34,50.88,34,49.49z"/>
	<path class="st0" d="M49.23,69.52c1.1,0,2.17-0.07,3.21,0.04c0.35,0.04,0.92,0.51,0.92,0.8c0.01,0.51-0.32,1.04-0.51,1.56
		c-0.09-0.02-0.18-0.03-0.26-0.05c0.3,0.4,0.61,0.81,0.91,1.21c-0.04,0.08-0.08,0.17-0.13,0.25c-0.34-0.17-0.84-0.26-0.99-0.54
		c-0.54-0.98-1.33-0.99-2.24-0.79c-0.21,1.23-0.21,1.23-0.92,1.12C49.23,71.95,49.23,70.78,49.23,69.52z M50.12,70.11
		c0,0.44,0,0.81,0,1.21c0.68,0,1.29,0.06,1.88-0.03c0.24-0.04,0.42-0.4,0.63-0.62c-0.22-0.19-0.43-0.5-0.68-0.54
		C51.36,70.05,50.76,70.11,50.12,70.11z"/>
	<path class="st0" d="M89.2,71.86c0.31,0.42,0.59,0.81,0.88,1.19c-0.04,0.08-0.07,0.16-0.11,0.24c-0.32-0.14-0.73-0.2-0.95-0.43
		c-0.89-0.96-0.87-0.98-2.3-0.88c-0.02,0.19-0.05,0.39-0.07,0.59c-0.02,0.18-0.02,0.36-0.04,0.86c-0.35-0.3-0.72-0.46-0.73-0.64
		c-0.05-1.05-0.03-2.11-0.03-3.27c1.11,0,2.14-0.08,3.15,0.04c0.37,0.04,0.87,0.49,0.99,0.85c0.1,0.31-0.24,0.78-0.43,1.16
		C89.51,71.68,89.35,71.74,89.2,71.86z M86.69,70.1c0,0.44,0,0.79,0,1.24c0.6,0,1.18,0.08,1.73-0.03c0.3-0.06,0.54-0.43,0.81-0.66
		c-0.27-0.18-0.52-0.47-0.81-0.52C87.88,70.04,87.33,70.1,86.69,70.1z"/>
	<path class="st0" d="M103.44,73.32c-1.81-0.37-2.53-1.99-3.95-2.77c0,0.87,0,1.7,0,2.54c-0.51,0.22-0.82,0.24-0.81-0.38
		c0.01-1.03,0-2.05,0-3.29c1.78,0.37,2.5,2.03,3.96,2.81c0-0.9,0-1.75,0-2.6c0.09-0.06,0.19-0.12,0.28-0.18
		c0.17,0.19,0.49,0.37,0.5,0.57C103.46,71.04,103.44,72.07,103.44,73.32z"/>
	<path class="st0" d="M59.21,71.58c-0.99,0-1.98,0-3.02,0c-0.02,0.38-0.03,0.67-0.05,1.19c1.18,0,2.31,0,3.43,0
		c-0.01,0.12-0.01,0.23-0.02,0.35c-1.33,0-2.65,0-4.05,0c0-1.13,0-2.3,0-3.54c1.3,0,2.58,0,3.88,0c-0.17,0.5-0.17,0.5-1.35,0.5
		c-0.58,0-1.15,0-1.81,0c-0.03,0.28-0.06,0.53-0.09,0.8c1.06,0.32,2.21-0.17,3.19,0.3C59.28,71.32,59.24,71.45,59.21,71.58z"/>
	<path class="st0" d="M65.44,70.2c-0.98-0.1-1.69-0.24-2.41-0.23c-0.28,0-0.55,0.33-0.83,0.51c0.28,0.16,0.55,0.39,0.85,0.46
		c0.53,0.12,1.11,0.04,1.6,0.23c0.33,0.13,0.74,0.57,0.75,0.9c0.02,0.35-0.35,1-0.6,1.03c-1.03,0.11-2.08,0.05-3.12,0
		c-0.13-0.01-0.25-0.33-0.44-0.58c0.99,0.09,1.79,0.22,2.59,0.22c0.28,0,0.56-0.33,0.85-0.51c-0.27-0.16-0.51-0.4-0.8-0.47
		c-0.53-0.12-1.11-0.06-1.61-0.23c-0.34-0.12-0.79-0.49-0.83-0.79c-0.04-0.35,0.28-1.03,0.52-1.06c0.99-0.14,2.01-0.1,3.02-0.08
		C65.1,69.61,65.21,69.88,65.44,70.2z"/>
	<path class="st0" d="M77.4,73.33c-0.27-0.15-0.62-0.23-0.8-0.46c-0.64-0.8-2.57-0.84-3.2-0.05c-0.18,0.23-0.51,0.33-0.77,0.5
		c-0.07-0.08-0.14-0.16-0.21-0.24c0.67-1.12,1.31-2.27,2.06-3.34c0.12-0.17,0.95-0.12,1.1,0.08c0.73,1.03,1.35,2.14,2,3.22
		C77.52,73.14,77.46,73.24,77.4,73.33z M74.99,70.11c-0.31,0.57-0.57,1.04-0.85,1.55c0.63,0,1.12,0,1.71,0
		C75.55,71.12,75.3,70.68,74.99,70.11z"/>
	<path class="st0" d="M91.63,73.21c0.77-1.27,1.42-2.42,2.18-3.51c0.11-0.16,0.91-0.12,1.04,0.07c0.74,1.06,1.37,2.2,2.1,3.41
		c-1.16,0.2-1.56-1.03-2.69-1.02C93.16,72.18,92.78,73.32,91.63,73.21z M93.4,71.69c0.67,0,1.14,0,1.75,0
		c-0.3-0.54-0.55-0.99-0.87-1.57C93.95,70.71,93.71,71.15,93.4,71.69z"/>
	<path class="st0" d="M83.69,69.66c0.21,3.33-0.06,3.73-2.56,3.73c-1.86,0-2.16-0.58-1.95-3.79c0.44-0.18,0.73-0.15,0.71,0.45
		c-0.02,0.52-0.02,1.04,0.01,1.55c0.04,0.91,0.42,1.21,1.54,1.21c1.1,0,1.48-0.3,1.52-1.22c0.02-0.52-0.04-1.04,0.03-1.55
		c0.03-0.22,0.3-0.41,0.46-0.61C83.53,69.51,83.61,69.59,83.69,69.66z"/>
	<path class="st0" d="M107.15,70.26c-0.69-0.38-1.49,0.18-2.06-0.69c1.75,0,3.31,0,4.9,0c-0.17,0.35-0.26,0.38-2,0.63
		c0,0.79,0.03,1.6-0.02,2.4c-0.01,0.22-0.27,0.42-0.42,0.63c-0.14-0.22-0.37-0.43-0.39-0.65C107.12,71.8,107.15,71.01,107.15,70.26z
		"/>
	<path class="st0" d="M126.69,49.68c-0.42,0.92-0.76,1.88-1.28,2.73c-0.18,0.29-0.81,0.3-1.39,0.48c0.34-1.23,0.53-2.27,0.96-3.2
		c0.13-0.27,0.94-0.23,1.44-0.34C126.5,49.46,126.6,49.57,126.69,49.68z"/>
	<path class="st0" d="M67.12,69.5c1.39,0,2.78-0.01,4.16,0.01c0.15,0,0.29,0.2,0.44,0.3c-0.16,0.09-0.31,0.25-0.47,0.27
		c-0.45,0.04-0.9,0.01-1.48,0.01c0,0.88,0.03,1.69-0.02,2.49c-0.01,0.22-0.26,0.43-0.4,0.64c-0.1-0.22-0.28-0.43-0.29-0.65
		c-0.04-0.78-0.01-1.57-0.01-2.32c-0.63-0.46-1.55,0.22-2.05-0.46C67.03,69.71,67.08,69.6,67.12,69.5z"/>
</g>
</svg>
